<svg xmlns="http://www.w3.org/2000/svg" xmlns:xlink="http://www.w3.org/1999/xlink" width="6912" zoomAndPan="magnify" viewBox="0 0 5184 2592.000001" height="3456" preserveAspectRatio="xMidYMid meet" version="1.0"><defs><g/><clipPath id="4687044240"><path d="M 4947 0 L 5183 0 L 5183 176 L 4947 176 Z M 4947 0 " clip-rule="nonzero"/></clipPath><clipPath id="51c5caa782"><path d="M 4647 107 L 5183 107 L 5183 239 L 4647 239 Z M 4647 107 " clip-rule="nonzero"/></clipPath><clipPath id="93e5e7f329"><path d="M 4537 256 L 5183 256 L 5183 357 L 4537 357 Z M 4537 256 " clip-rule="nonzero"/></clipPath><clipPath id="e77ddbe3fe"><path d="M 4531 378 L 5183 378 L 5183 577 L 4531 577 Z M 4531 378 " clip-rule="nonzero"/></clipPath><clipPath id="6a897592e3"><path d="M 4663 488 L 5183 488 L 5183 792 L 4663 792 Z M 4663 488 " clip-rule="nonzero"/></clipPath><clipPath id="6707a1865f"><path d="M 1 2035 L 169 2035 L 169 2211 L 1 2211 Z M 1 2035 " clip-rule="nonzero"/></clipPath><clipPath id="17c21c536d"><path d="M 1 2142 L 469 2142 L 469 2274 L 1 2274 Z M 1 2142 " clip-rule="nonzero"/></clipPath><clipPath id="2b9266c65e"><path d="M 1 2291 L 579 2291 L 579 2392 L 1 2392 Z M 1 2291 " clip-rule="nonzero"/></clipPath><clipPath id="a0c703bf85"><path d="M 1 2413 L 585 2413 L 585 2591 L 1 2591 Z M 1 2413 " clip-rule="nonzero"/></clipPath><clipPath id="50bf14395f"><path d="M 1 2523 L 453 2523 L 453 2591 L 1 2591 Z M 1 2523 " clip-rule="nonzero"/></clipPath><clipPath id="60898fc0a4"><path d="M 1162.886719 1906.417969 L 4022 1906.417969 L 4022 2503.21875 L 1162.886719 2503.21875 Z M 1162.886719 1906.417969 " clip-rule="nonzero"/></clipPath><clipPath id="a99e423c2f"><path d="M 3971.023438 2503.21875 L 1212.976562 2503.21875 C 1185.375 2503.21875 1162.886719 2480.730469 1162.886719 2453.128906 L 1162.886719 1956.511719 C 1162.886719 1928.910156 1185.375 1906.417969 1212.976562 1906.417969 L 3971.023438 1906.417969 C 3998.625 1906.417969 4021.113281 1928.910156 4021.113281 1956.511719 L 4021.113281 2453.128906 C 4021.113281 2480.730469 3998.625 2503.21875 3971.023438 2503.21875 Z M 3971.023438 2503.21875 " clip-rule="nonzero"/></clipPath><clipPath id="e83bb148b9"><path d="M 1 7 L 654 7 L 654 792 L 1 792 Z M 1 7 " clip-rule="nonzero"/></clipPath><clipPath id="8a858748a8"><path d="M 1 0 L 589 0 L 589 653 L 1 653 Z M 1 0 " clip-rule="nonzero"/></clipPath><clipPath id="c21940ebf4"><path d="M 4708 1910 L 5183 1910 L 5183 2591 L 4708 2591 Z M 4708 1910 " clip-rule="nonzero"/></clipPath><clipPath id="949f92813f"><path d="M 4462 1975 L 5183 1975 L 5183 2591 L 4462 2591 Z M 4462 1975 " clip-rule="nonzero"/></clipPath><clipPath id="f2a4d3d928"><path d="M 452.230469 2213.429688 L 863 2213.429688 L 863 2591 L 452.230469 2591 Z M 452.230469 2213.429688 " clip-rule="nonzero"/></clipPath><clipPath id="41d7a8d8a8"><path d="M 4718.625 483.289062 L 5129 483.289062 L 5129 861 L 4718.625 861 Z M 4718.625 483.289062 " clip-rule="nonzero"/></clipPath><clipPath id="704a0d7116"><path d="M 1557 115.773438 L 4142.144531 115.773438 L 4142.144531 1770.382812 L 1557 1770.382812 Z M 1557 115.773438 " clip-rule="nonzero"/></clipPath><clipPath id="4871273d12"><path d="M 1042.09375 508 L 2146 508 L 2146 591 L 1042.09375 591 Z M 1042.09375 508 " clip-rule="nonzero"/></clipPath></defs><path fill="#ffffff" d="M 1 0 L 5183 0 L 5183 2591 L 1 2591 Z M 1 0 " fill-opacity="1" fill-rule="nonzero"/><path fill="#ffffff" d="M 1 0 L 5183 0 L 5183 2591 L 1 2591 Z M 1 0 " fill-opacity="1" fill-rule="nonzero"/><g clip-path="url(#4687044240)"><path fill="#000000" d="M 5316.820312 163.875 C 5296.171875 118.332031 5245.109375 93.632812 5202.523438 72.863281 C 5153.035156 48.726562 5100.914062 29.957031 5047.363281 17.148438 C 5016.710938 9.824219 4985.613281 4.535156 4954.292969 1.03125 C 4944.605469 -0.046875 4944.695312 15.117188 4954.292969 16.191406 C 5057.25 27.714844 5161.753906 60.597656 5249.824219 115.890625 C 5272.109375 129.882812 5292.652344 147.105469 5303.734375 171.53125 C 5307.753906 180.398438 5320.824219 172.699219 5316.820312 163.875 Z M 5316.820312 163.875 " fill-opacity="1" fill-rule="nonzero"/></g><g clip-path="url(#51c5caa782)"><path fill="#000000" d="M 5267.09375 224.398438 C 5123.761719 140.84375 4956.097656 100.546875 4790.449219 108.660156 C 4744.207031 110.917969 4698.148438 116.996094 4652.878906 126.730469 C 4643.34375 128.777344 4647.375 143.40625 4656.910156 141.34375 C 4815.75 107.171875 4983.675781 120.816406 5135.527344 178.292969 C 5178.402344 194.515625 5219.835938 214.390625 5259.4375 237.480469 C 5267.878906 242.40625 5275.523438 229.308594 5267.09375 224.398438 Z M 5267.09375 224.398438 " fill-opacity="1" fill-rule="nonzero"/></g><g clip-path="url(#93e5e7f329)"><path fill="#000000" d="M 5274.460938 316.984375 C 5235.890625 288.847656 5188.769531 277.171875 5142.179688 270.730469 C 5092.96875 263.921875 5043.105469 260.222656 4993.484375 258.207031 C 4894.195312 254.15625 4793.570312 259.433594 4696.84375 283.523438 C 4642.828125 296.972656 4590.386719 316.558594 4541.261719 342.820312 C 4532.652344 347.425781 4540.308594 360.511719 4548.917969 355.902344 C 4634.503906 310.148438 4729.867188 286.269531 4826.089844 277.097656 C 4923.378906 267.816406 5021.910156 272.125 5118.894531 282.992188 C 5170.652344 288.800781 5223.867188 298.761719 5266.804688 330.082031 C 5274.703125 335.828125 5282.285156 322.683594 5274.460938 316.984375 Z M 5274.460938 316.984375 " fill-opacity="1" fill-rule="nonzero"/></g><g clip-path="url(#e77ddbe3fe)"><path fill="#000000" d="M 5231.765625 391.289062 C 5137.011719 374.929688 5040.179688 374.367188 4945.148438 388.816406 C 4850.53125 403.21875 4758.214844 432.632812 4672.722656 475.675781 C 4624.148438 500.128906 4577.921875 529.085938 4534.757812 562.152344 C 4527.117188 568.003906 4534.667969 581.179688 4542.414062 575.234375 C 4617.386719 517.804688 4701.621094 472.882812 4790.949219 442.242188 C 4880.246094 411.617188 4974.242188 394.957031 5068.667969 393.5625 C 5121.941406 392.773438 5175.246094 396.808594 5227.75 405.886719 C 5237.285156 407.554688 5241.378906 392.957031 5231.765625 391.289062 Z M 5231.765625 391.289062 " fill-opacity="1" fill-rule="nonzero"/></g><g clip-path="url(#6a897592e3)"><path fill="#000000" d="M 5215.289062 489.0625 C 5132.265625 502.371094 5052.566406 530.207031 4975.867188 564.09375 C 4937.585938 581.011719 4899.972656 599.433594 4862.75 618.550781 C 4825.046875 637.925781 4788.433594 658.910156 4755.230469 685.410156 C 4720.875 712.835938 4690.691406 745.023438 4665.007812 780.664062 C 4659.292969 788.59375 4672.4375 796.175781 4678.089844 788.320312 C 4700.726562 756.925781 4727.273438 728.40625 4756.914062 703.527344 C 4788.476562 677.027344 4823.695312 655.984375 4860.144531 636.941406 C 4932.808594 598.992188 5007.355469 563.578125 5085.144531 537.363281 C 5128.914062 522.613281 5173.699219 510.984375 5219.320312 503.660156 C 5228.917969 502.144531 5224.839844 487.53125 5215.289062 489.0625 Z M 5215.289062 489.0625 " fill-opacity="1" fill-rule="nonzero"/></g><g clip-path="url(#6707a1865f)"><path fill="#7c3e66" d="M -201 2198.621094 C -180.351562 2153.078125 -129.289062 2128.378906 -86.703125 2107.609375 C -37.214844 2083.472656 14.90625 2064.703125 68.457031 2051.890625 C 99.109375 2044.570312 130.207031 2039.277344 161.527344 2035.777344 C 171.214844 2034.699219 171.125 2049.859375 161.527344 2050.9375 C 58.570312 2062.460938 -45.933594 2095.34375 -134.003906 2150.636719 C -156.289062 2164.628906 -176.832031 2181.851562 -187.914062 2206.277344 C -191.933594 2215.144531 -205.003906 2207.445312 -201 2198.621094 Z M -201 2198.621094 " fill-opacity="1" fill-rule="nonzero"/></g><g clip-path="url(#17c21c536d)"><path fill="#7c3e66" d="M -151.273438 2259.140625 C -7.941406 2175.589844 159.722656 2135.292969 325.371094 2143.402344 C 371.613281 2145.664062 417.671875 2151.742188 462.941406 2161.476562 C 472.480469 2163.523438 468.445312 2178.152344 458.910156 2176.089844 C 300.070312 2141.917969 132.144531 2155.5625 -19.707031 2213.039062 C -62.582031 2229.261719 -104.015625 2249.136719 -143.617188 2272.226562 C -152.058594 2277.152344 -159.703125 2264.054688 -151.273438 2259.140625 Z M -151.273438 2259.140625 " fill-opacity="1" fill-rule="nonzero"/></g><g clip-path="url(#2b9266c65e)"><path fill="#7c3e66" d="M -158.640625 2351.730469 C -120.070312 2323.589844 -72.949219 2311.917969 -26.359375 2305.472656 C 22.851562 2298.667969 72.714844 2294.96875 122.335938 2292.949219 C 221.625 2288.902344 322.25 2294.179688 418.976562 2318.269531 C 472.992188 2331.71875 525.4375 2351.304688 574.558594 2377.5625 C 583.167969 2382.171875 575.511719 2395.257812 566.902344 2390.648438 C 481.316406 2344.890625 385.957031 2321.015625 289.730469 2311.839844 C 192.441406 2302.5625 93.910156 2306.867188 -3.074219 2317.738281 C -54.832031 2323.546875 -108.046875 2333.507812 -150.984375 2364.828125 C -158.882812 2370.574219 -166.464844 2357.429688 -158.640625 2351.730469 Z M -158.640625 2351.730469 " fill-opacity="1" fill-rule="nonzero"/></g><g clip-path="url(#a0c703bf85)"><path fill="#7c3e66" d="M -115.945312 2426.035156 C -21.191406 2409.675781 75.640625 2409.113281 170.671875 2423.5625 C 265.289062 2437.964844 357.605469 2467.378906 443.097656 2510.417969 C 491.671875 2534.875 537.898438 2563.832031 581.0625 2596.898438 C 588.703125 2602.75 581.152344 2615.925781 573.40625 2609.980469 C 498.433594 2552.550781 414.199219 2507.628906 324.871094 2476.988281 C 235.574219 2446.363281 141.578125 2429.703125 47.152344 2428.308594 C -6.121094 2427.519531 -59.425781 2431.550781 -111.929688 2440.632812 C -121.464844 2442.300781 -125.558594 2427.703125 -115.945312 2426.035156 Z M -115.945312 2426.035156 " fill-opacity="1" fill-rule="nonzero"/></g><g clip-path="url(#50bf14395f)"><path fill="#7c3e66" d="M -99.46875 2523.804688 C -16.445312 2537.117188 63.253906 2564.953125 139.953125 2598.835938 C 178.234375 2615.757812 215.851562 2634.179688 253.070312 2653.296875 C 290.773438 2672.671875 327.386719 2693.652344 360.589844 2720.15625 C 394.945312 2747.582031 425.132812 2779.769531 450.8125 2815.410156 C 456.527344 2823.339844 443.382812 2830.921875 437.730469 2823.066406 C 415.09375 2791.667969 388.546875 2763.152344 358.90625 2738.273438 C 327.34375 2711.769531 292.125 2690.726562 255.675781 2671.6875 C 183.011719 2633.738281 108.464844 2598.320312 30.675781 2572.109375 C -13.09375 2557.359375 -57.878906 2545.730469 -103.5 2538.40625 C -113.097656 2536.890625 -109.019531 2522.273438 -99.46875 2523.804688 Z M -99.46875 2523.804688 " fill-opacity="1" fill-rule="nonzero"/></g><g clip-path="url(#60898fc0a4)"><g clip-path="url(#a99e423c2f)"><path fill="#000000" d="M 1162.886719 1906.417969 L 4021.003906 1906.417969 L 4021.003906 2503.21875 L 1162.886719 2503.21875 Z M 1162.886719 1906.417969 " fill-opacity="1" fill-rule="nonzero"/></g></g><g clip-path="url(#e83bb148b9)"><path fill="#000000" d="M 632.914062 156.925781 C 611.511719 187.914062 571.617188 209.644531 534.429688 207.90625 C 489.925781 208.566406 453.003906 179.785156 444.851562 134.75 C 440.671875 111.722656 445.839844 89.226562 458.097656 68.957031 C 482.152344 29.175781 517.335938 7.648438 564.0625 7.648438 C 607.675781 7.648438 642.628906 35.808594 651.292969 76.703125 C 657.503906 106.09375 649.652344 132.679688 632.914062 156.925781 Z M -256.421875 35.464844 C -263.902344 33.621094 -271.980469 33.839844 -279.433594 35.933594 C -305.96875 43.414062 -315.097656 64.359375 -312.902344 88.683594 C -311.859375 100.1875 -306.082031 110.03125 -292.859375 112.597656 C -276.84375 115.695312 -262.820312 111.214844 -250.058594 101.726562 C -249.296875 101.167969 -248.8125 100.238281 -248.203125 99.476562 C -240.328125 89.875 -235.871094 79.144531 -237.242188 67.914062 C -237.242188 48.367188 -242.714844 38.832031 -256.421875 35.464844 Z M 176.542969 734.894531 C 176.554688 742.84375 176.402344 750.644531 174.28125 758.503906 C 165.671875 790.539062 133.21875 795.949219 112.871094 788.289062 C 98.023438 782.699219 87.710938 772.03125 80.28125 758.378906 C 75.863281 750.261719 75.722656 741.652344 78.136719 732.886719 C 95.738281 669.128906 176.480469 674.996094 176.542969 734.894531 Z M 131.570312 704.933594 C 128.417969 704.984375 125.332031 704.816406 122.234375 706.039062 C 106.726562 712.109375 99.09375 724.644531 94.773438 739.695312 C 93.972656 742.464844 93.78125 745.929688 95.496094 748.917969 C 99.550781 755.953125 104.453125 762.277344 111.042969 767.089844 C 126.78125 778.585938 152.054688 775.066406 157.261719 751.925781 C 158.164062 747.898438 159.054688 743.875 159.878906 739.835938 C 163.296875 723.082031 148.550781 704.933594 131.570312 704.933594 Z M 131.570312 704.933594 " fill-opacity="1" fill-rule="nonzero"/></g><g clip-path="url(#8a858748a8)"><path fill="#000000" d="M 362.230469 449.667969 C 340.5625 485.003906 314.578125 517.1875 287.308594 548.367188 C 265.234375 573.59375 240.707031 596.058594 213.121094 615.046875 C 161.757812 650.40625 96.054688 654.867188 41.023438 651.703125 C 21.042969 650.558594 1.28125 645.632812 -18.164062 640.132812 C -67.863281 626.097656 -113.929688 604.683594 -155.09375 573.25 C -204.421875 535.578125 -239.960938 488.316406 -253.804688 426.910156 C -259.964844 399.601562 -261.144531 371.773438 -259.660156 343.617188 C -257.78125 308.332031 -253.613281 273.519531 -246.246094 238.984375 C -231.832031 171.390625 -206.402344 109.105469 -161.964844 55.113281 C -139.089844 27.3125 -112.976562 3.292969 -85.757812 -20.0625 C -42.636719 -57.074219 8.761719 -72.710938 63.070312 -82.058594 C 80.078125 -84.980469 97.339844 -85.167969 114.449219 -86.792969 C 146.621094 -89.84375 178.15625 -87.304688 209.042969 -78.921875 C 273.03125 -61.558594 325.84375 -27.175781 363.347656 28.1875 C 401.25 84.160156 479.332031 258.710938 362.230469 449.667969 Z M -156.78125 625.714844 C -168.859375 623.761719 -180.394531 620 -191.203125 614.183594 C -219.359375 599.03125 -240.542969 576.347656 -258.171875 550.3125 C -297.253906 492.609375 -316.457031 428.050781 -320.128906 359.058594 C -322.402344 316.382812 -316.496094 274.585938 -295.628906 236.140625 C -292.769531 230.882812 -293.699219 225.660156 -299.171875 223.007812 C -304.328125 220.492188 -309.207031 222.066406 -312.113281 227.542969 C -316.585938 235.9375 -320.597656 244.535156 -323.761719 253.503906 C -334.46875 283.882812 -338.851562 315.265625 -338.152344 349.980469 C -339.511719 368.179688 -336.832031 388.742188 -333.199219 409.027344 C -325.03125 454.570312 -310.703125 498.121094 -287.386719 538.359375 C -267.761719 572.207031 -243.859375 602.320312 -210.609375 623.953125 C -194.730469 634.277344 -177.863281 642.164062 -158.585938 643.449219 C -153.148438 643.816406 -148.679688 642.277344 -148.042969 636.015625 C -147.394531 629.78125 -150.761719 626.695312 -156.78125 625.714844 Z M 339.8125 -205.5625 C 349.960938 -209.636719 360.160156 -213.523438 370.574219 -216.917969 C 374.714844 -218.261719 376.582031 -217.867188 377.953125 -213.449219 C 381.714844 -201.394531 385.90625 -189.46875 389.929688 -177.492188 C 394.734375 -163.203125 400.144531 -161.210938 412.996094 -169.035156 C 423.589844 -175.484375 434.09375 -182.066406 444.734375 -188.429688 C 453.003906 -193.382812 453.765625 -193.0625 455.964844 -183.578125 C 459.074219 -170.101562 462.023438 -156.585938 464.929688 -143.074219 C 466.277344 -136.835938 468.929688 -132.085938 476.617188 -131.691406 C 481.554688 -131.871094 485.621094 -135.222656 490.105469 -137.574219 C 507.515625 -146.679688 523.089844 -159.175781 542.0625 -165.414062 C 546.914062 -167 549.417969 -170.824219 547.753906 -175.6875 C 545.722656 -181.644531 540.363281 -182.699219 535.078125 -181.035156 C 527.660156 -178.699219 520.664062 -175.246094 513.917969 -171.28125 C 505.320312 -166.238281 496.542969 -161.5 487.96875 -156.433594 C 483.664062 -153.894531 481.492188 -152.902344 480.183594 -159.671875 C 477.429688 -173.949219 474.367188 -188.226562 469.71875 -202.070312 C 465.566406 -214.464844 459.875 -216.777344 448.101562 -211.175781 C 435.109375 -204.988281 423.335938 -196.710938 411.039062 -189.328125 C 407.066406 -186.953125 405.707031 -187.691406 404.410156 -191.820312 C 400.613281 -203.859375 396.546875 -215.835938 392.535156 -227.800781 C 389.410156 -237.097656 384 -239.839844 374.574219 -237.339844 C 360.441406 -233.578125 347.089844 -227.625 333.324219 -222.898438 C 325.246094 -220.128906 323.1875 -213.929688 324.789062 -209.195312 C 326.476562 -204.089844 332.574219 -202.640625 339.8125 -205.5625 Z M 488.171875 -100.207031 C 479.664062 -93.71875 471.242188 -87.125 462.859375 -80.484375 C 455.542969 -74.691406 455.339844 -74.539062 451.734375 -83.277344 C 445.675781 -97.984375 437.726562 -111.636719 429.152344 -124.9375 C 422.40625 -135.402344 415.652344 -136.136719 406.304688 -128.175781 C 400.195312 -122.96875 393.996094 -117.875 388.078125 -112.476562 C 384.230469 -108.972656 383.542969 -110.496094 382.285156 -114.648438 C 377.546875 -130.269531 371.910156 -145.574219 364.238281 -160.027344 C 359.5625 -168.84375 351.867188 -171.359375 345.085938 -165.742188 C 332.535156 -155.367188 318.324219 -148.101562 303.414062 -142.007812 C 301.304688 -141.140625 299.5625 -139.9375 298.054688 -138.335938 C 292.933594 -132.886719 295.15625 -125.710938 302.394531 -123.792969 C 306.09375 -122.816406 309.050781 -124.566406 312.136719 -125.800781 C 324.152344 -130.601562 335.648438 -136.46875 346.355469 -143.71875 C 350.304688 -146.386719 351.207031 -145.296875 352.804688 -141.421875 C 358.75 -127.03125 364.886719 -112.78125 367.160156 -97.160156 C 367.984375 -91.46875 371.769531 -87.53125 379.136719 -87.796875 C 381.980469 -87.316406 384.976562 -89.082031 387.988281 -90.679688 C 396.421875 -95.175781 404.042969 -100.855469 410.648438 -107.714844 C 414.316406 -111.523438 416.160156 -111.625 419.082031 -106.683594 C 427.398438 -92.613281 435.070312 -78.296875 440.863281 -62.96875 C 444.75 -52.691406 451.046875 -50.851562 460.28125 -56.667969 C 462.339844 -57.964844 464.296875 -59.425781 466.1875 -60.960938 C 476.972656 -69.675781 487.5625 -78.617188 498.539062 -87.074219 C 503.25 -90.707031 505.839844 -94.402344 502.335938 -99.941406 C 499.566406 -104.347656 493.6875 -104.410156 488.171875 -100.207031 Z M -336.882812 513.871094 C -349.304688 493.347656 -358.652344 471.566406 -364.710938 448.285156 C -371.605469 421.816406 -374.628906 394.851562 -376.546875 367.683594 C -378.386719 341.699219 -379.453125 315.800781 -371.035156 290.539062 C -369.207031 285.078125 -372.40625 280.871094 -378.121094 280.542969 C -385.375 280.136719 -387.886719 284.847656 -389.261719 290.730469 C -393.84375 310.503906 -394.238281 330.6875 -395.382812 351.589844 C -393.972656 371.40625 -393.667969 392.042969 -390.644531 412.503906 C -386.746094 438.820312 -380.40625 464.476562 -370.207031 489.078125 C -364.417969 503.050781 -357.113281 516.273438 -349.011719 529.035156 C -344.707031 535.804688 -339.382812 537.773438 -334.542969 534.398438 C -328.28125 530.027344 -330.847656 524.707031 -333.628906 519.574219 C -334.644531 517.644531 -335.738281 515.75 -336.882812 513.871094 Z M -144.550781 -160.574219 C -145.949219 -165.730469 -144.714844 -170.519531 -140.359375 -173.632812 C -124.710938 -184.820312 -107.425781 -190.753906 -87.929688 -188.820312 C -81.375 -188.175781 -77.222656 -184.414062 -75.191406 -178.417969 C -72.167969 -169.464844 -69.308594 -160.449219 -66.65625 -151.367188 C -65.15625 -146.261719 -65.96875 -141.460938 -71.265625 -138.917969 C -84.375 -132.632812 -97.164062 -125.609375 -111.199219 -121.429688 C -114.257812 -120.515625 -117.320312 -119.945312 -119.988281 -120.097656 C -129.335938 -120.070312 -133.714844 -122.929688 -136.257812 -131.183594 C -139.230469 -140.914062 -141.882812 -150.757812 -144.550781 -160.574219 Z M -123.402344 -152.167969 C -122.640625 -149.347656 -121.703125 -146.578125 -121.117188 -143.734375 C -120.113281 -138.804688 -117.140625 -138.132812 -113.078125 -139.820312 C -108.136719 -141.867188 -103.273438 -144.113281 -98.320312 -146.144531 C -82.898438 -152.457031 -82.949219 -152.546875 -89.238281 -168.273438 C -90.570312 -171.597656 -92.3125 -173.007812 -95.828125 -173.074219 C -102.371094 -171.269531 -109.0625 -169.859375 -115.441406 -167.585938 C -126.527344 -163.621094 -126.453125 -163.40625 -123.402344 -152.167969 Z M 499.4375 523.640625 C 499.832031 535.5 495.945312 539.792969 484.324219 540.835938 C 475.992188 541.585938 468.421875 545.066406 460.550781 547.453125 C 449.816406 550.703125 445.601562 548.773438 441.066406 538.574219 C 435.019531 524.984375 431.753906 510.53125 427.832031 496.28125 C 426.15625 490.210938 428.667969 485.726562 434.234375 483.289062 C 444.265625 478.894531 454.898438 476.300781 465.539062 474.003906 C 471.027344 472.808594 476.425781 474.28125 479.371094 479.746094 C 486.636719 493.195312 493.292969 506.9375 498.703125 521.265625 C 499.058594 522.152344 499.273438 523.105469 499.4375 523.640625 Z M 480.578125 520.566406 C 480.425781 520.109375 480.335938 519.625 480.132812 519.195312 C 475.941406 510.722656 471.75 502.238281 467.523438 493.792969 C 466.65625 492.0625 465.335938 491.390625 463.332031 492.089844 C 458.988281 493.589844 454.566406 494.898438 450.210938 496.371094 C 447.707031 497.207031 447.023438 498.796875 447.859375 501.464844 C 450.3125 509.3125 452.507812 517.238281 454.871094 525.113281 C 455.863281 528.414062 457.527344 529.722656 461.335938 528.273438 C 466.734375 526.21875 472.425781 524.894531 478.011719 523.386719 C 479.585938 522.941406 480.78125 522.46875 480.578125 520.566406 Z M 580.96875 580.730469 C 569.664062 585.226562 558.027344 588.78125 545.925781 590.371094 C 539.410156 591.222656 533.808594 588.882812 532.183594 582.28125 C 529.109375 569.820312 526.9375 557.132812 525.007812 547.605469 C 524.246094 538.117188 526.835938 533.34375 532.804688 531.207031 C 541.238281 528.199219 549.8125 525.304688 559.042969 526.941406 C 559.515625 527.03125 559.960938 527.375 560.429688 527.398438 C 575.25 528.390625 575.339844 528.425781 580.117188 542.664062 C 582.746094 550.5 585.410156 558.324219 587.8125 566.238281 C 590.0625 573.667969 588.179688 577.859375 580.96875 580.730469 Z M 568.050781 562.949219 C 565.828125 556.929688 563.324219 549.878906 560.59375 542.917969 C 559.820312 540.9375 558.027344 541.574219 556.238281 541.964844 C 542.179688 545.027344 542.179688 544.976562 545.035156 559.101562 C 545.65625 562.171875 546.355469 565.246094 546.699219 568.347656 C 547.03125 571.320312 548.796875 572.144531 551.195312 571.535156 C 556.097656 570.277344 560.925781 568.753906 565.75 567.230469 C 567.1875 566.785156 568.277344 565.804688 568.050781 562.949219 Z M 568.050781 562.949219 " fill-opacity="1" fill-rule="nonzero"/></g><g clip-path="url(#c21940ebf4)"><path fill="#000000" d="M 4857.636719 1931.003906 C 4888.625 1952.40625 4910.355469 1992.300781 4908.617188 2029.488281 C 4909.277344 2073.992188 4880.496094 2110.914062 4835.460938 2119.066406 C 4812.433594 2123.246094 4789.941406 2118.078125 4769.667969 2105.820312 C 4729.890625 2081.765625 4708.359375 2046.582031 4708.359375 1999.855469 C 4708.359375 1956.242188 4736.519531 1921.289062 4777.417969 1912.625 C 4806.804688 1906.414062 4833.390625 1914.265625 4857.636719 1931.003906 Z M 4736.175781 2820.339844 C 4734.335938 2827.820312 4734.550781 2835.898438 4736.644531 2843.351562 C 4744.128906 2869.886719 4765.070312 2879.015625 4789.394531 2876.820312 C 4800.902344 2875.777344 4810.742188 2870 4813.308594 2856.777344 C 4816.410156 2840.761719 4811.925781 2826.738281 4802.4375 2813.976562 C 4801.878906 2813.214844 4800.953125 2812.730469 4800.1875 2812.121094 C 4790.585938 2804.246094 4779.855469 2799.789062 4768.628906 2801.160156 C 4749.082031 2801.160156 4739.542969 2806.632812 4736.175781 2820.339844 Z M 5435.605469 2387.375 C 5443.558594 2387.363281 5451.355469 2387.515625 5459.21875 2389.636719 C 5491.25 2398.246094 5496.660156 2430.699219 5489 2451.046875 C 5483.414062 2465.894531 5472.742188 2476.207031 5459.089844 2483.636719 C 5450.972656 2488.054688 5442.363281 2488.195312 5433.597656 2485.78125 C 5369.839844 2468.179688 5375.707031 2387.4375 5435.605469 2387.375 Z M 5405.644531 2432.347656 C 5405.695312 2435.5 5405.53125 2438.585938 5406.75 2441.683594 C 5412.820312 2457.191406 5425.355469 2464.824219 5440.40625 2469.144531 C 5443.175781 2469.945312 5446.644531 2470.136719 5449.628906 2468.421875 C 5456.664062 2464.367188 5462.988281 2459.464844 5467.804688 2452.875 C 5479.296875 2437.136719 5475.777344 2411.863281 5452.636719 2406.65625 C 5448.613281 2405.753906 5444.585938 2404.863281 5440.546875 2404.039062 C 5423.792969 2400.621094 5405.644531 2415.367188 5405.644531 2432.347656 Z M 5405.644531 2432.347656 " fill-opacity="1" fill-rule="nonzero"/></g><g clip-path="url(#949f92813f)"><path fill="#000000" d="M 5150.378906 2201.6875 C 5185.714844 2223.355469 5217.898438 2249.339844 5249.078125 2276.609375 C 5274.304688 2298.683594 5296.773438 2323.210938 5315.757812 2350.796875 C 5351.117188 2402.160156 5355.578125 2467.863281 5352.414062 2522.894531 C 5351.269531 2542.875 5346.34375 2562.636719 5340.84375 2582.082031 C 5326.808594 2631.78125 5305.394531 2677.847656 5273.960938 2719.011719 C 5236.289062 2768.339844 5189.03125 2803.878906 5127.621094 2817.722656 C 5100.3125 2823.882812 5072.484375 2825.0625 5044.328125 2823.578125 C 5009.042969 2821.699219 4974.230469 2817.53125 4939.695312 2810.164062 C 4872.101562 2795.75 4809.816406 2770.320312 4755.824219 2725.882812 C 4728.023438 2703.007812 4704.003906 2676.894531 4680.648438 2649.675781 C 4643.636719 2606.554688 4628.003906 2555.15625 4618.65625 2500.847656 C 4615.734375 2483.839844 4615.542969 2466.578125 4613.917969 2449.46875 C 4610.867188 2417.296875 4613.410156 2385.761719 4621.792969 2354.875 C 4639.152344 2290.886719 4673.535156 2238.074219 4728.898438 2200.570312 C 4784.871094 2162.667969 4959.421875 2084.585938 5150.378906 2201.6875 Z M 5326.429688 2720.699219 C 5324.472656 2732.777344 5320.714844 2744.3125 5314.894531 2755.121094 C 5299.742188 2783.277344 5277.058594 2804.460938 5251.023438 2822.089844 C 5193.320312 2861.171875 5128.761719 2880.375 5059.773438 2884.046875 C 5017.097656 2886.320312 4975.296875 2880.414062 4936.851562 2859.546875 C 4931.59375 2856.6875 4926.375 2857.617188 4923.71875 2863.089844 C 4921.203125 2868.246094 4922.777344 2873.125 4928.253906 2876.03125 C 4936.648438 2880.503906 4945.246094 2884.515625 4954.214844 2887.679688 C 4984.59375 2898.386719 5015.980469 2902.769531 5050.691406 2902.070312 C 5068.890625 2903.429688 5089.453125 2900.75 5109.738281 2897.117188 C 5155.28125 2888.949219 5198.835938 2874.621094 5239.070312 2851.304688 C 5272.917969 2831.679688 5303.03125 2807.777344 5324.664062 2774.527344 C 5334.988281 2758.648438 5342.875 2741.78125 5344.160156 2722.503906 C 5344.527344 2717.066406 5342.992188 2712.597656 5336.730469 2711.960938 C 5330.492188 2711.3125 5327.40625 2714.679688 5326.429688 2720.699219 Z M 4495.148438 2224.105469 C 4491.074219 2213.957031 4487.1875 2203.757812 4483.796875 2193.34375 C 4482.449219 2189.203125 4482.84375 2187.335938 4487.261719 2185.964844 C 4499.316406 2182.203125 4511.242188 2178.011719 4523.21875 2173.988281 C 4537.507812 2169.183594 4539.5 2163.773438 4531.679688 2150.921875 C 4525.226562 2140.328125 4518.648438 2129.824219 4512.285156 2119.183594 C 4507.332031 2110.914062 4507.648438 2110.152344 4517.136719 2107.953125 C 4530.609375 2104.84375 4544.125 2101.894531 4557.640625 2098.988281 C 4563.875 2097.640625 4568.625 2094.988281 4569.019531 2087.300781 C 4568.839844 2082.363281 4565.488281 2078.296875 4563.136719 2073.8125 C 4554.03125 2056.402344 4541.535156 2040.828125 4535.296875 2021.855469 C 4533.710938 2017.003906 4529.886719 2014.5 4525.023438 2016.164062 C 4519.066406 2018.195312 4518.011719 2023.554688 4519.675781 2028.839844 C 4522.011719 2036.257812 4525.46875 2043.253906 4529.429688 2050 C 4534.472656 2058.597656 4539.210938 2067.375 4544.277344 2075.949219 C 4546.816406 2080.253906 4547.808594 2082.425781 4541.039062 2083.734375 C 4526.761719 2086.488281 4512.488281 2089.550781 4498.644531 2094.199219 C 4486.246094 2098.351562 4483.933594 2104.042969 4489.535156 2115.816406 C 4495.722656 2128.808594 4504.003906 2140.582031 4511.382812 2152.878906 C 4513.757812 2156.851562 4513.019531 2158.210938 4508.890625 2159.507812 C 4496.851562 2163.304688 4484.875 2167.371094 4472.910156 2171.382812 C 4463.613281 2174.507812 4460.871094 2179.917969 4463.371094 2189.34375 C 4467.132812 2203.476562 4473.089844 2216.828125 4477.8125 2230.59375 C 4480.582031 2238.671875 4486.78125 2240.730469 4491.519531 2239.128906 C 4496.625 2237.441406 4498.070312 2231.34375 4495.148438 2224.105469 Z M 4600.503906 2075.746094 C 4606.996094 2084.253906 4613.585938 2092.675781 4620.230469 2101.058594 C 4626.019531 2108.375 4626.171875 2108.578125 4617.433594 2112.183594 C 4602.726562 2118.242188 4589.074219 2126.191406 4575.777344 2134.765625 C 4565.308594 2141.511719 4564.574219 2148.265625 4572.535156 2157.613281 C 4577.746094 2163.722656 4582.835938 2169.921875 4588.234375 2175.839844 C 4591.742188 2179.6875 4590.21875 2180.375 4586.0625 2181.632812 C 4570.441406 2186.371094 4555.136719 2192.007812 4540.683594 2199.679688 C 4531.867188 2204.355469 4529.355469 2212.050781 4534.96875 2218.832031 C 4545.34375 2231.382812 4552.609375 2245.59375 4558.707031 2260.503906 C 4559.570312 2262.613281 4560.777344 2264.355469 4562.375 2265.863281 C 4567.824219 2270.984375 4575 2268.761719 4576.917969 2261.523438 C 4577.898438 2257.824219 4576.144531 2254.867188 4574.914062 2251.78125 C 4570.109375 2239.765625 4564.242188 2228.269531 4556.992188 2217.5625 C 4554.324219 2213.613281 4555.417969 2212.710938 4559.289062 2211.113281 C 4573.679688 2205.167969 4587.929688 2199.03125 4603.554688 2196.757812 C 4609.242188 2195.933594 4613.179688 2192.148438 4612.914062 2184.78125 C 4613.394531 2181.9375 4611.628906 2178.941406 4610.03125 2175.929688 C 4605.535156 2167.496094 4599.855469 2159.875 4593 2153.269531 C 4589.1875 2149.601562 4589.085938 2147.757812 4594.027344 2144.835938 C 4608.101562 2136.519531 4622.414062 2128.847656 4637.742188 2123.054688 C 4648.019531 2119.167969 4649.859375 2112.871094 4644.042969 2103.636719 C 4642.746094 2101.578125 4641.289062 2099.621094 4639.75 2097.730469 C 4631.039062 2086.945312 4622.097656 2076.355469 4613.636719 2065.378906 C 4610.003906 2060.667969 4606.308594 2058.078125 4600.769531 2061.582031 C 4596.363281 2064.351562 4596.300781 2070.230469 4600.503906 2075.746094 Z M 5214.582031 2900.800781 C 5194.058594 2913.222656 5172.277344 2922.570312 5148.996094 2928.628906 C 5122.527344 2935.523438 5095.5625 2938.546875 5068.394531 2940.464844 C 5042.410156 2942.304688 5016.511719 2943.371094 4991.25 2934.953125 C 4985.789062 2933.125 4981.585938 2936.324219 4981.253906 2942.039062 C 4980.847656 2949.292969 4985.558594 2951.804688 4991.441406 2953.179688 C 5011.214844 2957.761719 5031.398438 2958.15625 5052.304688 2959.300781 C 5072.117188 2957.890625 5092.757812 2957.585938 5113.21875 2954.5625 C 5139.535156 2950.664062 5165.191406 2944.324219 5189.792969 2934.125 C 5203.761719 2928.335938 5216.984375 2921.03125 5229.75 2912.929688 C 5236.519531 2908.625 5238.488281 2903.300781 5235.109375 2898.460938 C 5230.738281 2892.199219 5225.417969 2894.765625 5220.285156 2897.546875 C 5218.355469 2898.5625 5216.464844 2899.65625 5214.582031 2900.800781 Z M 4540.136719 2708.46875 C 4534.980469 2709.867188 4530.191406 2708.632812 4527.082031 2704.277344 C 4515.890625 2688.628906 4509.960938 2671.34375 4511.890625 2651.847656 C 4512.539062 2645.292969 4516.296875 2641.140625 4522.292969 2639.109375 C 4531.246094 2636.085938 4540.265625 2633.226562 4549.34375 2630.574219 C 4554.449219 2629.074219 4559.25 2629.886719 4561.792969 2635.183594 C 4568.078125 2648.292969 4575.101562 2661.082031 4579.28125 2675.117188 C 4580.195312 2678.175781 4580.765625 2681.238281 4580.613281 2683.90625 C 4580.640625 2693.253906 4577.78125 2697.632812 4569.527344 2700.175781 C 4559.796875 2703.148438 4549.953125 2705.800781 4540.136719 2708.46875 Z M 4548.546875 2687.320312 C 4551.363281 2686.558594 4554.132812 2685.621094 4556.976562 2685.035156 C 4561.90625 2684.03125 4562.578125 2681.058594 4560.890625 2676.996094 C 4558.84375 2672.054688 4556.597656 2667.191406 4554.566406 2662.238281 C 4548.253906 2646.816406 4548.164062 2646.867188 4532.441406 2653.15625 C 4529.113281 2654.488281 4527.703125 2656.230469 4527.640625 2659.746094 C 4529.441406 2666.289062 4530.851562 2672.980469 4533.125 2679.359375 C 4537.089844 2690.445312 4537.304688 2690.371094 4548.546875 2687.320312 Z M 5224.351562 2064.480469 C 5236.214844 2064.085938 5240.507812 2067.972656 5241.546875 2079.59375 C 5242.296875 2087.925781 5245.777344 2095.496094 5248.164062 2103.367188 C 5251.417969 2114.101562 5249.484375 2118.316406 5239.285156 2122.851562 C 5225.695312 2128.898438 5211.242188 2132.164062 5196.992188 2136.085938 C 5190.921875 2137.761719 5186.4375 2135.25 5184 2129.683594 C 5179.605469 2119.652344 5177.015625 2109.019531 5174.714844 2098.378906 C 5173.519531 2092.890625 5174.996094 2087.492188 5180.457031 2084.546875 C 5193.90625 2077.28125 5207.648438 2070.625 5221.976562 2065.214844 C 5222.863281 2064.859375 5223.816406 2064.644531 5224.351562 2064.480469 Z M 5221.277344 2083.339844 C 5220.820312 2083.492188 5220.335938 2083.582031 5219.90625 2083.785156 C 5211.433594 2087.976562 5202.949219 2092.167969 5194.503906 2096.394531 C 5192.777344 2097.261719 5192.101562 2098.582031 5192.800781 2100.585938 C 5194.300781 2104.929688 5195.609375 2109.351562 5197.082031 2113.707031 C 5197.917969 2116.210938 5199.507812 2116.894531 5202.175781 2116.058594 C 5210.023438 2113.605469 5217.949219 2111.410156 5225.824219 2109.046875 C 5229.125 2108.054688 5230.433594 2106.390625 5228.988281 2102.582031 C 5226.929688 2097.183594 5225.609375 2091.492188 5224.097656 2085.90625 C 5223.652344 2084.332031 5223.183594 2083.136719 5221.277344 2083.339844 Z M 5281.441406 1982.953125 C 5285.9375 1994.253906 5289.492188 2005.890625 5291.082031 2017.992188 C 5291.933594 2024.507812 5289.59375 2030.109375 5282.992188 2031.734375 C 5270.53125 2034.808594 5257.84375 2036.980469 5248.316406 2038.910156 C 5238.828125 2039.671875 5234.054688 2037.082031 5231.921875 2031.113281 C 5228.910156 2022.679688 5226.015625 2014.105469 5227.652344 2004.875 C 5227.742188 2004.402344 5228.085938 2003.957031 5228.109375 2003.488281 C 5229.101562 1988.667969 5229.140625 1988.578125 5243.375 1983.800781 C 5251.214844 1981.171875 5259.039062 1978.507812 5266.949219 1976.105469 C 5274.378906 1973.855469 5278.570312 1975.738281 5281.441406 1982.953125 Z M 5263.660156 1995.867188 C 5257.640625 1998.089844 5250.589844 2000.59375 5243.628906 2003.324219 C 5241.648438 2004.097656 5242.285156 2005.890625 5242.679688 2007.679688 C 5245.738281 2021.738281 5245.6875 2021.738281 5259.8125 2018.882812 C 5262.886719 2018.261719 5265.960938 2017.5625 5269.058594 2017.21875 C 5272.03125 2016.886719 5272.855469 2015.121094 5272.246094 2012.722656 C 5270.988281 2007.820312 5269.464844 2002.992188 5267.941406 1998.167969 C 5267.496094 1996.730469 5266.519531 1995.640625 5263.660156 1995.867188 Z M 5263.660156 1995.867188 " fill-opacity="1" fill-rule="nonzero"/></g><g clip-path="url(#f2a4d3d928)"><path fill="#000000" d="M 850.210938 2354.714844 C 837.074219 2354.019531 823.960938 2353.15625 810.820312 2352.542969 C 784.527344 2351.28125 758.230469 2349.890625 731.933594 2349.113281 C 726.105469 2348.945312 724.90625 2346.566406 724.546875 2341.722656 C 723.890625 2332.609375 722.925781 2323.511719 721.980469 2314.414062 C 720.210938 2297.785156 718.359375 2281.128906 716.527344 2264.496094 C 714.988281 2250.496094 713.578125 2236.476562 711.851562 2222.496094 C 711.09375 2216.265625 707.683594 2213.59375 701.304688 2213.507812 C 696.335938 2213.445312 691.367188 2213.507812 686.398438 2213.507812 C 678.378906 2213.570312 670.378906 2214.265625 662.398438 2214.476562 C 640.648438 2215.066406 618.921875 2216.121094 597.195312 2216.769531 C 572.394531 2217.53125 547.589844 2218.328125 522.789062 2219.195312 C 503.359375 2219.847656 483.882812 2220.078125 464.472656 2221.511719 C 454.199219 2222.246094 452.324219 2224.101562 452.597656 2234.519531 C 453.0625 2252.628906 454.574219 2270.671875 455.941406 2288.730469 C 457.054688 2303.742188 457.519531 2318.816406 458.550781 2333.828125 C 460.257812 2358.523438 462.300781 2383.222656 463.984375 2407.917969 C 465.351562 2427.683594 466.367188 2447.476562 467.628906 2467.265625 C 468.386719 2478.953125 472.386719 2482.574219 483.585938 2480.78125 C 504.636719 2477.4375 525.609375 2473.644531 546.621094 2470.023438 C 567.441406 2466.425781 588.261719 2462.863281 609.042969 2459.117188 C 613.128906 2458.382812 614.851562 2459.328125 615.019531 2463.625 C 615.484375 2475.816406 616.113281 2488.003906 616.851562 2500.195312 C 618.261719 2523.777344 619.96875 2547.332031 621.1875 2570.933594 C 621.816406 2582.742188 624.808594 2586.21875 636.742188 2586.382812 C 666.320312 2586.804688 695.90625 2587.601562 725.484375 2588.53125 C 754.117188 2589.414062 782.792969 2589.5 811.425781 2590.027344 C 819.445312 2590.175781 827.445312 2590.847656 835.445312 2590.929688 C 841.738281 2591.015625 847.253906 2587.539062 847.042969 2583.035156 C 846.808594 2578 848.15625 2573.308594 848.558594 2568.421875 C 849.484375 2556.464844 850.308594 2544.484375 850.980469 2532.507812 C 852.164062 2511.203125 853.929688 2489.9375 855.402344 2468.652344 C 856.242188 2456.484375 857.003906 2444.316406 857.824219 2432.144531 C 859.296875 2410.480469 860.921875 2388.832031 862.183594 2367.148438 C 862.675781 2358.84375 858.699219 2355.160156 850.210938 2354.714844 Z M 620.289062 2343.472656 C 613.152344 2343.199219 608.515625 2347.386719 608.832031 2354.757812 C 609.503906 2371.117188 610.808594 2387.476562 611.757812 2403.8125 C 612.34375 2414.484375 612.683594 2425.160156 613.296875 2435.832031 C 613.460938 2439.097656 611.632812 2439.386719 609.105469 2439.832031 C 585.292969 2443.894531 561.484375 2448.085938 537.667969 2452.210938 C 523.035156 2454.757812 508.378906 2457.183594 493.769531 2459.808594 C 486.066406 2461.21875 486.382812 2461.367188 485.875 2453.894531 C 484.167969 2428.230469 482.191406 2402.589844 480.402344 2376.941406 C 479.476562 2363.828125 478.824219 2350.691406 477.941406 2337.570312 C 476.507812 2316.285156 474.949219 2295.003906 473.519531 2273.714844 C 472.972656 2265.523438 472.636719 2257.335938 472.171875 2248.429688 C 472.023438 2240.785156 472.023438 2240.785156 480.191406 2239.4375 C 481.496094 2239.226562 482.824219 2239.019531 484.148438 2239 C 502.488281 2238.535156 520.800781 2238.175781 539.140625 2237.652344 C 562.972656 2236.933594 586.828125 2236.328125 610.65625 2235.226562 C 632.953125 2234.175781 655.269531 2233.355469 677.585938 2232.996094 C 681.585938 2232.933594 685.566406 2232.425781 689.542969 2232.050781 C 692.617188 2231.777344 694.21875 2233.144531 694.53125 2236.15625 C 696.089844 2251.125 697.628906 2266.074219 699.25 2281.019531 C 701.039062 2297.484375 702.890625 2313.921875 704.703125 2330.386719 C 705.082031 2333.988281 705.1875 2337.628906 705.753906 2341.1875 C 706.726562 2347.378906 705.988281 2348.640625 699.671875 2347.570312 C 689.246094 2345.800781 678.722656 2346.808594 668.257812 2345.820312 C 652.351562 2344.296875 636.289062 2344.085938 620.289062 2343.472656 Z M 631.742188 2429.625 C 631.53125 2423.332031 631.195312 2417.054688 630.839844 2410.78125 C 630.019531 2396.714844 629.367188 2382.628906 628.167969 2367.640625 C 627.347656 2363.976562 629.175781 2362.421875 633.832031 2362.777344 C 657.203125 2364.589844 680.609375 2365.746094 704.042969 2366.269531 C 707.203125 2366.332031 708.421875 2367.722656 708.738281 2370.691406 C 709.683594 2379.574219 710.820312 2388.460938 711.832031 2397.328125 C 712.570312 2403.75 713.136719 2410.210938 713.980469 2416.609375 C 714.484375 2420.339844 713.515625 2421.957031 709.410156 2422.632812 C 685.578125 2426.546875 661.765625 2430.652344 638.019531 2435.117188 C 632.628906 2436.128906 631.867188 2433.730469 631.742188 2429.625 Z M 842.761719 2377.496094 C 841.625 2392.488281 840.589844 2407.496094 839.539062 2422.507812 C 838.65625 2435.246094 837.859375 2447.980469 836.972656 2460.71875 C 835.121094 2487.308594 833.203125 2513.898438 831.398438 2540.511719 C 830.808594 2549.273438 830.28125 2558.027344 830.136719 2566.789062 C 830.074219 2570.621094 828.785156 2571.820312 825.101562 2571.585938 C 820.515625 2571.335938 815.921875 2571.527344 811.332031 2571.527344 C 790.554688 2570.03125 769.691406 2571.0625 748.929688 2570.054688 C 733.457031 2569.273438 717.941406 2570.175781 702.546875 2568.976562 C 683.304688 2567.4375 664.015625 2569.039062 644.777344 2567.316406 C 640.269531 2566.914062 639.765625 2565.167969 639.578125 2561.335938 C 638.183594 2532.40625 636.609375 2503.484375 634.859375 2474.554688 C 634.605469 2470.386719 634.457031 2466.152344 633.828125 2462.046875 C 632.878906 2455.875 635.933594 2454.382812 641.109375 2453.519531 C 668.332031 2449.015625 695.511719 2444.300781 722.714844 2439.628906 C 731.539062 2438.132812 734.359375 2435.121094 733.703125 2426.15625 C 732.757812 2413.4375 731.113281 2400.785156 729.765625 2388.113281 C 729.179688 2382.429688 728.585938 2376.742188 728.015625 2371.078125 C 727.78125 2368.761719 728.351562 2367.898438 731.195312 2368.046875 C 753.679688 2369.160156 776.1875 2369.921875 798.671875 2370.929688 C 811.976562 2371.519531 825.308594 2372.488281 838.632812 2373.039062 C 841.898438 2373.179688 843.015625 2374.296875 842.761719 2377.496094 Z M 842.761719 2377.496094 " fill-opacity="1" fill-rule="nonzero"/></g><g clip-path="url(#41d7a8d8a8)"><path fill="#000000" d="M 5116.609375 624.574219 C 5103.46875 623.878906 5090.355469 623.015625 5077.21875 622.402344 C 5050.921875 621.140625 5024.628906 619.75 4998.332031 618.972656 C 4992.5 618.804688 4991.300781 616.425781 4990.941406 611.582031 C 4990.289062 602.46875 4989.324219 593.371094 4988.375 584.273438 C 4986.609375 567.644531 4984.753906 550.988281 4982.921875 534.355469 C 4981.382812 520.355469 4979.972656 506.335938 4978.25 492.355469 C 4977.488281 486.125 4974.082031 483.453125 4967.703125 483.367188 C 4962.730469 483.304688 4957.765625 483.367188 4952.792969 483.367188 C 4944.773438 483.429688 4936.773438 484.125 4928.792969 484.335938 C 4907.042969 484.925781 4885.316406 485.980469 4863.589844 486.628906 C 4838.789062 487.390625 4813.984375 488.1875 4789.1875 489.054688 C 4769.753906 489.707031 4750.277344 489.9375 4730.871094 491.371094 C 4720.59375 492.105469 4718.722656 493.960938 4718.992188 504.378906 C 4719.457031 522.488281 4720.972656 540.53125 4722.339844 558.589844 C 4723.453125 573.601562 4723.917969 588.675781 4724.949219 603.6875 C 4726.65625 628.382812 4728.695312 653.082031 4730.382812 677.777344 C 4731.75 697.542969 4732.761719 717.335938 4734.023438 737.125 C 4734.785156 748.8125 4738.785156 752.433594 4749.980469 750.640625 C 4771.035156 747.296875 4792.007812 743.503906 4813.015625 739.882812 C 4833.839844 736.285156 4854.65625 732.722656 4875.4375 728.976562 C 4879.523438 728.242188 4881.25 729.1875 4881.417969 733.484375 C 4881.878906 745.675781 4882.511719 757.863281 4883.246094 770.054688 C 4884.65625 793.636719 4886.363281 817.191406 4887.582031 840.792969 C 4888.210938 852.601562 4891.203125 856.078125 4903.136719 856.242188 C 4932.71875 856.664062 4962.300781 857.460938 4991.878906 858.390625 C 5020.511719 859.273438 5049.1875 859.359375 5077.820312 859.886719 C 5085.839844 860.035156 5093.839844 860.707031 5101.839844 860.789062 C 5108.136719 860.875 5113.648438 857.398438 5113.441406 852.894531 C 5113.207031 847.859375 5114.554688 843.167969 5114.953125 838.28125 C 5115.882812 826.324219 5116.703125 814.34375 5117.378906 802.367188 C 5118.558594 781.0625 5120.328125 759.796875 5121.800781 738.511719 C 5122.640625 726.34375 5123.398438 714.175781 5124.222656 702.003906 C 5125.695312 680.339844 5127.320312 658.691406 5128.582031 637.007812 C 5129.074219 628.703125 5125.097656 625.019531 5116.609375 624.574219 Z M 4886.683594 613.332031 C 4879.546875 613.0625 4874.910156 617.246094 4875.226562 624.617188 C 4875.902344 640.976562 4877.207031 657.335938 4878.152344 673.671875 C 4878.742188 684.34375 4879.078125 695.019531 4879.691406 705.691406 C 4879.859375 708.957031 4878.027344 709.246094 4875.5 709.691406 C 4851.691406 713.753906 4827.878906 717.945312 4804.0625 722.070312 C 4789.429688 724.617188 4774.777344 727.042969 4760.167969 729.667969 C 4752.460938 731.078125 4752.777344 731.226562 4752.273438 723.753906 C 4750.566406 698.089844 4748.585938 672.449219 4746.800781 646.800781 C 4745.871094 633.6875 4745.222656 620.550781 4744.339844 607.429688 C 4742.902344 586.144531 4741.347656 564.863281 4739.917969 543.574219 C 4739.367188 535.382812 4739.03125 527.195312 4738.570312 518.289062 C 4738.421875 510.644531 4738.421875 510.644531 4746.589844 509.296875 C 4747.894531 509.085938 4749.222656 508.878906 4750.546875 508.859375 C 4768.882812 508.394531 4787.199219 508.035156 4805.535156 507.511719 C 4829.371094 506.792969 4853.222656 506.1875 4877.054688 505.085938 C 4899.347656 504.035156 4921.667969 503.214844 4943.980469 502.855469 C 4947.980469 502.792969 4951.964844 502.285156 4955.941406 501.910156 C 4959.011719 501.636719 4960.613281 503.003906 4960.929688 506.015625 C 4962.488281 520.984375 4964.027344 535.933594 4965.644531 550.878906 C 4967.433594 567.34375 4969.289062 583.78125 4971.097656 600.246094 C 4971.476562 603.847656 4971.582031 607.488281 4972.152344 611.046875 C 4973.121094 617.238281 4972.386719 618.5 4966.066406 617.429688 C 4955.644531 615.660156 4945.121094 616.667969 4934.652344 615.679688 C 4918.746094 614.15625 4902.683594 613.945312 4886.683594 613.332031 Z M 4898.140625 699.484375 C 4897.929688 693.191406 4897.589844 686.914062 4897.234375 680.640625 C 4896.414062 666.574219 4895.765625 652.488281 4894.5625 637.5 C 4893.742188 633.835938 4895.574219 632.28125 4900.226562 632.636719 C 4923.597656 634.449219 4947.007812 635.605469 4970.441406 636.128906 C 4973.597656 636.191406 4974.816406 637.582031 4975.132812 640.550781 C 4976.078125 649.433594 4977.21875 658.320312 4978.230469 667.1875 C 4978.964844 673.609375 4979.535156 680.070312 4980.375 686.46875 C 4980.882812 690.199219 4979.914062 691.816406 4975.808594 692.492188 C 4951.972656 696.40625 4928.164062 700.511719 4904.414062 704.976562 C 4899.023438 705.988281 4898.261719 703.589844 4898.140625 699.484375 Z M 5109.15625 647.355469 C 5108.019531 662.347656 5106.988281 677.355469 5105.9375 692.367188 C 5105.050781 705.105469 5104.253906 717.839844 5103.371094 730.578125 C 5101.515625 757.167969 5099.597656 783.757812 5097.792969 810.371094 C 5097.203125 819.132812 5096.679688 827.886719 5096.53125 836.648438 C 5096.46875 840.480469 5095.183594 841.679688 5091.5 841.445312 C 5086.910156 841.195312 5082.316406 841.386719 5077.730469 841.386719 C 5056.949219 839.890625 5036.085938 840.921875 5015.328125 839.914062 C 4999.851562 839.132812 4984.339844 840.035156 4968.945312 838.835938 C 4949.703125 837.296875 4930.414062 838.898438 4911.171875 837.175781 C 4906.664062 836.773438 4906.164062 835.027344 4905.972656 831.195312 C 4904.582031 802.265625 4903.003906 773.34375 4901.253906 744.414062 C 4901.003906 740.246094 4900.855469 736.011719 4900.222656 731.90625 C 4899.277344 725.738281 4902.332031 724.242188 4907.507812 723.378906 C 4934.730469 718.875 4961.910156 714.160156 4989.113281 709.488281 C 4997.933594 707.992188 5000.753906 704.980469 5000.101562 696.015625 C 4999.152344 683.296875 4997.507812 670.644531 4996.160156 657.972656 C 4995.574219 652.289062 4994.980469 646.601562 4994.414062 640.9375 C 4994.179688 638.621094 4994.746094 637.761719 4997.589844 637.90625 C 5020.078125 639.023438 5042.582031 639.78125 5065.070312 640.789062 C 5078.375 641.378906 5091.703125 642.347656 5105.027344 642.898438 C 5108.292969 643.039062 5109.410156 644.15625 5109.15625 647.355469 Z M 5109.15625 647.355469 " fill-opacity="1" fill-rule="nonzero"/></g><g clip-path="url(#704a0d7116)"><path fill="#1d1d1b" d="M 4121.453125 943.367188 L 3873.035156 503.203125 L 3872.304688 501.980469 C 3848.546875 463.070312 3808.480469 439.859375 3765.132812 439.859375 L 3460.476562 439.859375 L 3481.820312 285.332031 C 3487.722656 242.617188 3474.863281 199.472656 3446.535156 166.957031 C 3418.203125 134.445312 3377.21875 115.789062 3334.09375 115.789062 L 1861.503906 115.789062 C 1838.804688 115.789062 1820.386719 134.207031 1820.386719 156.910156 C 1820.386719 179.609375 1838.804688 198.027344 1861.503906 198.027344 L 3334.109375 198.027344 C 3353.734375 198.027344 3371.640625 206.171875 3384.53125 220.96875 C 3397.421875 235.761719 3403.050781 254.621094 3400.363281 274.058594 L 3377.457031 439.84375 L 3376.179688 439.84375 L 3240.953125 1393.972656 L 3240.816406 1395.042969 C 3237.839844 1420.910156 3235.867188 1440.585938 3234.542969 1455.5 L 2510.898438 1455.5 C 2491.003906 1323.945312 2377.167969 1222.78125 2240.152344 1222.78125 C 2103.140625 1222.78125 1989.304688 1323.945312 1969.40625 1455.5 L 1706.296875 1455.5 C 1686.671875 1455.5 1668.761719 1447.351562 1655.875 1432.558594 C 1642.984375 1417.761719 1637.355469 1398.90625 1640.042969 1379.46875 L 1668.050781 1176.679688 C 1671.160156 1154.183594 1655.429688 1133.417969 1632.949219 1130.324219 C 1610.382812 1127.210938 1589.703125 1142.941406 1586.59375 1165.441406 L 1558.585938 1368.226562 C 1552.683594 1410.945312 1565.554688 1454.085938 1593.871094 1486.601562 C 1622.203125 1519.113281 1663.1875 1537.753906 1706.3125 1537.753906 L 1969.421875 1537.753906 C 1989.320312 1669.304688 2103.15625 1770.46875 2240.171875 1770.46875 C 2377.183594 1770.46875 2491.019531 1669.304688 2510.917969 1537.753906 L 3371.128906 1537.753906 C 3391.027344 1669.304688 3504.863281 1770.46875 3641.878906 1770.46875 C 3778.890625 1770.46875 3892.726562 1669.304688 3912.625 1537.753906 L 3965.917969 1537.753906 C 4035.777344 1537.753906 4092.78125 1477.351562 4094.160156 1402.527344 L 4141.84375 1023.734375 L 4142.167969 1018.597656 C 4142.167969 991.800781 4135.007812 965.816406 4121.46875 943.386719 Z M 2431.738281 1496.617188 C 2431.738281 1510.730469 2430.15625 1524.488281 2427.25 1537.734375 C 2408.371094 1623.679688 2331.675781 1688.199219 2240.136719 1688.199219 C 2148.59375 1688.199219 2071.917969 1623.664062 2053.039062 1537.734375 C 2050.132812 1524.472656 2048.550781 1510.730469 2048.550781 1496.617188 C 2048.550781 1482.503906 2050.132812 1468.746094 2053.039062 1455.5 C 2071.917969 1369.554688 2148.613281 1305.035156 2240.136719 1305.035156 C 2331.660156 1305.035156 2408.355469 1369.570312 2427.25 1455.5 C 2430.15625 1468.761719 2431.738281 1482.503906 2431.738281 1496.617188 Z M 3833.460938 1496.617188 C 3833.460938 1510.730469 3831.882812 1524.488281 3828.972656 1537.734375 C 3810.097656 1623.679688 3733.402344 1688.199219 3641.859375 1688.199219 C 3550.320312 1688.199219 3473.625 1623.664062 3454.746094 1537.734375 C 3451.839844 1524.472656 3450.257812 1510.730469 3450.257812 1496.617188 C 3450.257812 1482.503906 3451.839844 1468.746094 3454.746094 1455.5 C 3473.625 1369.554688 3550.320312 1305.035156 3641.859375 1305.035156 C 3733.402344 1305.035156 3810.082031 1369.570312 3828.972656 1455.5 C 3831.882812 1468.761719 3833.460938 1482.503906 3833.460938 1496.617188 Z M 4012.242188 1394.601562 L 4011.921875 1399.738281 C 4011.921875 1430.484375 3991.273438 1455.5 3965.902344 1455.5 L 3912.605469 1455.5 C 3892.710938 1323.945312 3778.875 1222.78125 3641.859375 1222.78125 C 3504.847656 1222.78125 3391.011719 1323.945312 3371.113281 1455.5 L 3320.199219 1455.5 L 3449.136719 522.097656 L 3765.152344 522.097656 C 3779.4375 522.097656 3793.089844 530.394531 3801.816406 544.339844 L 4050.148438 984.367188 L 4050.878906 985.59375 C 4056.40625 994.640625 4059.503906 1005.214844 4059.875 1016.320312 L 4012.261719 1394.601562 Z M 4012.242188 1394.601562 " fill-opacity="1" fill-rule="nonzero"/></g><path fill="#1d1d1b" d="M 3761.359375 609.113281 C 3750.847656 588.417969 3729.882812 575.5625 3706.667969 575.5625 L 3540.589844 575.5625 C 3509.84375 575.5625 3483.691406 598.550781 3479.746094 629.027344 L 3443.863281 905.921875 C 3441.601562 923.421875 3446.976562 941.054688 3458.625 954.320312 C 3470.273438 967.566406 3487.058594 975.167969 3504.710938 975.167969 L 3847.476562 975.167969 C 3868.988281 975.167969 3888.542969 964.214844 3899.785156 945.882812 C 3911.027344 927.554688 3911.925781 905.15625 3902.183594 886.007812 L 3761.375 609.113281 Z M 3528.484375 892.929688 L 3558.957031 657.816406 L 3693.863281 657.816406 L 3813.414062 892.929688 Z M 3528.484375 892.929688 " fill-opacity="1" fill-rule="nonzero"/><g clip-path="url(#4871273d12)"><path fill="#1d1d1b" d="M 2145.925781 549.457031 C 2145.925781 526.757812 2127.507812 508.339844 2104.804688 508.339844 L 1083.257812 508.339844 C 1060.554688 508.339844 1042.140625 526.757812 1042.140625 549.457031 C 1042.140625 572.160156 1060.554688 590.578125 1083.257812 590.578125 L 2104.789062 590.578125 C 2127.492188 590.578125 2145.90625 572.160156 2145.90625 549.457031 Z M 2145.925781 549.457031 " fill-opacity="1" fill-rule="nonzero"/></g><path fill="#1d1d1b" d="M 2381.25 744.695312 L 1359.703125 744.695312 C 1337 744.695312 1318.582031 763.113281 1318.582031 785.8125 C 1318.582031 808.515625 1337 826.933594 1359.703125 826.933594 L 2381.230469 826.933594 C 2403.933594 826.933594 2422.351562 808.515625 2422.351562 785.8125 C 2422.351562 763.113281 2403.933594 744.695312 2381.230469 744.695312 Z M 2381.25 744.695312 " fill-opacity="1" fill-rule="nonzero"/><path fill="#1d1d1b" d="M 2020.949219 1022.171875 C 2020.949219 999.46875 2002.53125 981.050781 1979.832031 981.050781 L 1208.25 981.050781 C 1185.546875 981.050781 1167.132812 999.46875 1167.132812 1022.171875 C 1167.132812 1044.871094 1185.546875 1063.289062 1208.25 1063.289062 L 1979.832031 1063.289062 C 2002.53125 1063.289062 2020.949219 1044.871094 2020.949219 1022.171875 Z M 2020.949219 1022.171875 " fill-opacity="1" fill-rule="nonzero"/><path fill="#1d1d1b" d="M 1368.511719 371.957031 L 2390.039062 371.957031 C 2412.742188 371.957031 2431.160156 353.539062 2431.160156 330.839844 C 2431.160156 308.136719 2412.742188 289.71875 2390.039062 289.71875 L 1368.511719 289.71875 C 1345.808594 289.71875 1327.390625 308.136719 1327.390625 330.839844 C 1327.390625 353.539062 1345.808594 371.957031 1368.511719 371.957031 Z M 1368.511719 371.957031 " fill-opacity="1" fill-rule="nonzero"/><g fill="#ffffff" fill-opacity="1"><g transform="translate(1324.088349, 2285.053867)"><g><path d="M 17.71875 0 L 17.71875 -180.25 L 77.203125 -180.25 C 89.617188 -180.25 101.285156 -177.894531 112.203125 -173.1875 C 123.117188 -168.476562 132.679688 -162.019531 140.890625 -153.8125 C 149.097656 -145.601562 155.554688 -136.039062 160.265625 -125.125 C 164.972656 -114.207031 167.328125 -102.539062 167.328125 -90.125 C 167.328125 -77.707031 164.972656 -66.039062 160.265625 -55.125 C 155.554688 -44.207031 149.097656 -34.644531 140.890625 -26.4375 C 132.679688 -18.226562 123.117188 -11.769531 112.203125 -7.0625 C 101.285156 -2.351562 89.617188 0 77.203125 0 Z M 57.375 -35.140625 L 76.90625 -35.140625 C 86.519531 -35.140625 95.128906 -37.539062 102.734375 -42.34375 C 110.347656 -47.15625 116.40625 -53.71875 120.90625 -62.03125 C 125.414062 -70.34375 127.671875 -79.707031 127.671875 -90.125 C 127.671875 -100.539062 125.414062 -109.898438 120.90625 -118.203125 C 116.40625 -126.515625 110.347656 -133.070312 102.734375 -137.875 C 95.128906 -142.6875 86.519531 -145.09375 76.90625 -145.09375 L 57.375 -145.09375 Z M 57.375 -35.140625 "/></g></g></g><g fill="#ffffff" fill-opacity="1"><g transform="translate(1502.513941, 2285.053867)"><g><path d="M 103.640625 2.40625 C 90.828125 2.40625 78.859375 0.00390625 67.734375 -4.796875 C 56.617188 -9.609375 46.804688 -16.269531 38.296875 -24.78125 C 29.785156 -33.289062 23.125 -43.101562 18.3125 -54.21875 C 13.507812 -65.332031 11.109375 -77.300781 11.109375 -90.125 C 11.109375 -102.9375 13.507812 -114.898438 18.3125 -126.015625 C 23.125 -137.128906 29.785156 -146.941406 38.296875 -155.453125 C 46.804688 -163.972656 56.617188 -170.632812 67.734375 -175.4375 C 78.859375 -180.25 90.828125 -182.65625 103.640625 -182.65625 C 116.460938 -182.65625 128.476562 -180.25 139.6875 -175.4375 C 150.90625 -170.632812 160.71875 -163.972656 169.125 -155.453125 C 177.539062 -146.941406 184.148438 -137.128906 188.953125 -126.015625 C 193.765625 -114.898438 196.171875 -102.9375 196.171875 -90.125 C 196.171875 -77.300781 193.765625 -65.332031 188.953125 -54.21875 C 184.148438 -43.101562 177.539062 -33.289062 169.125 -24.78125 C 160.71875 -16.269531 150.90625 -9.609375 139.6875 -4.796875 C 128.476562 0.00390625 116.460938 2.40625 103.640625 2.40625 Z M 103.640625 -36.34375 C 113.859375 -36.34375 123.019531 -38.695312 131.125 -43.40625 C 139.238281 -48.113281 145.648438 -54.519531 150.359375 -62.625 C 155.066406 -70.738281 157.421875 -79.90625 157.421875 -90.125 C 157.421875 -100.332031 155.066406 -109.492188 150.359375 -117.609375 C 145.648438 -125.722656 139.238281 -132.128906 131.125 -136.828125 C 123.019531 -141.535156 113.859375 -143.890625 103.640625 -143.890625 C 93.628906 -143.890625 84.566406 -141.535156 76.453125 -136.828125 C 68.335938 -132.128906 61.925781 -125.722656 57.21875 -117.609375 C 52.519531 -109.492188 50.171875 -100.332031 50.171875 -90.125 C 50.171875 -79.90625 52.519531 -70.738281 57.21875 -62.625 C 61.925781 -54.519531 68.335938 -48.113281 76.453125 -43.40625 C 84.566406 -38.695312 93.628906 -36.34375 103.640625 -36.34375 Z M 103.640625 -36.34375 "/></g></g></g><g fill="#ffffff" fill-opacity="1"><g transform="translate(1710.07635, 2285.053867)"><g><path d="M 94.328125 -180.25 C 104.546875 -180.25 113.707031 -177.796875 121.8125 -172.890625 C 129.925781 -167.984375 136.335938 -161.421875 141.046875 -153.203125 C 145.753906 -144.992188 148.109375 -135.882812 148.109375 -125.875 C 148.109375 -115.851562 145.753906 -106.835938 141.046875 -98.828125 C 136.335938 -90.816406 129.925781 -84.507812 121.8125 -79.90625 C 113.707031 -75.300781 104.546875 -73 94.328125 -73 L 57.375 -73 L 57.375 0 L 17.71875 0 L 17.71875 -180.25 Z M 88.015625 -105.75 C 94.429688 -105.75 99.738281 -107.550781 103.9375 -111.15625 C 108.144531 -114.757812 110.25 -119.566406 110.25 -125.578125 C 110.25 -131.378906 108.144531 -136.132812 103.9375 -139.84375 C 99.738281 -143.550781 94.429688 -145.40625 88.015625 -145.40625 L 57.375 -145.40625 L 57.375 -105.75 Z M 88.015625 -105.75 "/></g></g></g><g fill="#ffffff" fill-opacity="1"><g transform="translate(1859.365126, 2285.053867)"><g><path d="M 111.75 -74.203125 L 162.21875 0 L 117.765625 0 L 73.296875 -69.6875 L 57.375 -69.6875 L 57.375 0 L 17.71875 0 L 17.71875 -180.25 L 94.328125 -180.25 C 104.742188 -180.25 113.957031 -177.796875 121.96875 -172.890625 C 129.976562 -167.984375 136.335938 -161.320312 141.046875 -152.90625 C 145.753906 -144.5 148.109375 -135.1875 148.109375 -124.96875 C 148.109375 -112.75 144.703125 -102.035156 137.890625 -92.828125 C 131.078125 -83.617188 122.363281 -77.410156 111.75 -74.203125 Z M 88.328125 -102.4375 C 94.734375 -102.4375 99.988281 -104.4375 104.09375 -108.4375 C 108.195312 -112.445312 110.25 -117.554688 110.25 -123.765625 C 110.25 -129.972656 108.195312 -135.078125 104.09375 -139.078125 C 99.988281 -143.085938 94.734375 -145.09375 88.328125 -145.09375 L 57.375 -145.09375 L 57.375 -102.4375 Z M 88.328125 -102.4375 "/></g></g></g><g fill="#ffffff" fill-opacity="1"><g transform="translate(2020.068278, 2285.053867)"><g><path d="M 127.96875 0 L 116.859375 -33.953125 L 49.5625 -33.953125 L 38.453125 0 L -3.90625 0 L 60.984375 -180.25 L 105.4375 -180.25 L 170.328125 0 Z M 60.078125 -66.984375 L 106.34375 -66.984375 L 83.21875 -138.484375 Z M 60.078125 -66.984375 "/></g></g></g><g fill="#ffffff" fill-opacity="1"><g transform="translate(2186.478698, 2285.053867)"><g><path d="M 126.171875 -180.25 L 170.328125 -180.25 L 105.4375 0 L 60.984375 0 L -3.90625 -180.25 L 40.25 -180.25 L 83.21875 -51.375 Z M 126.171875 -180.25 "/></g></g></g><g fill="#ffffff" fill-opacity="1"><g transform="translate(2352.889119, 2285.053867)"><g><path d="M 127.96875 0 L 116.859375 -33.953125 L 49.5625 -33.953125 L 38.453125 0 L -3.90625 0 L 60.984375 -180.25 L 105.4375 -180.25 L 170.328125 0 Z M 60.078125 -66.984375 L 106.34375 -66.984375 L 83.21875 -138.484375 Z M 60.078125 -66.984375 "/></g></g></g><g fill="#ffffff" fill-opacity="1"><g transform="translate(2519.299539, 2285.053867)"><g/></g></g><g fill="#ffffff" fill-opacity="1"><g transform="translate(2591.390731, 2285.053867)"><g><path d="M 145.09375 -180.25 L 69.09375 -35.140625 L 145.09375 -35.140625 L 145.09375 0 L 6.90625 0 L 83.515625 -145.09375 L 14.421875 -145.09375 L 14.421875 -180.25 Z M 145.09375 -180.25 "/></g></g></g><g fill="#ffffff" fill-opacity="1"><g transform="translate(2745.185186, 2285.053867)"><g><path d="M 127.96875 0 L 116.859375 -33.953125 L 49.5625 -33.953125 L 38.453125 0 L -3.90625 0 L 60.984375 -180.25 L 105.4375 -180.25 L 170.328125 0 Z M 60.078125 -66.984375 L 106.34375 -66.984375 L 83.21875 -138.484375 Z M 60.078125 -66.984375 "/></g></g></g><g fill="#ffffff" fill-opacity="1"><g transform="translate(2911.595606, 2285.053867)"><g><path d="M 17.71875 0 L 17.71875 -180.25 L 77.203125 -180.25 C 89.617188 -180.25 101.285156 -177.894531 112.203125 -173.1875 C 123.117188 -168.476562 132.679688 -162.019531 140.890625 -153.8125 C 149.097656 -145.601562 155.554688 -136.039062 160.265625 -125.125 C 164.972656 -114.207031 167.328125 -102.539062 167.328125 -90.125 C 167.328125 -77.707031 164.972656 -66.039062 160.265625 -55.125 C 155.554688 -44.207031 149.097656 -34.644531 140.890625 -26.4375 C 132.679688 -18.226562 123.117188 -11.769531 112.203125 -7.0625 C 101.285156 -2.351562 89.617188 0 77.203125 0 Z M 57.375 -35.140625 L 76.90625 -35.140625 C 86.519531 -35.140625 95.128906 -37.539062 102.734375 -42.34375 C 110.347656 -47.15625 116.40625 -53.71875 120.90625 -62.03125 C 125.414062 -70.34375 127.671875 -79.707031 127.671875 -90.125 C 127.671875 -100.539062 125.414062 -109.898438 120.90625 -118.203125 C 116.40625 -126.515625 110.347656 -133.070312 102.734375 -137.875 C 95.128906 -142.6875 86.519531 -145.09375 76.90625 -145.09375 L 57.375 -145.09375 Z M 57.375 -35.140625 "/></g></g></g><g fill="#ffffff" fill-opacity="1"><g transform="translate(3090.021116, 2285.053867)"><g><path d="M 127.96875 0 L 116.859375 -33.953125 L 49.5625 -33.953125 L 38.453125 0 L -3.90625 0 L 60.984375 -180.25 L 105.4375 -180.25 L 170.328125 0 Z M 60.078125 -66.984375 L 106.34375 -66.984375 L 83.21875 -138.484375 Z M 60.078125 -66.984375 "/></g></g></g><g fill="#ffffff" fill-opacity="1"><g transform="translate(3256.431537, 2285.053867)"><g><path d="M 111.75 -74.203125 L 162.21875 0 L 117.765625 0 L 73.296875 -69.6875 L 57.375 -69.6875 L 57.375 0 L 17.71875 0 L 17.71875 -180.25 L 94.328125 -180.25 C 104.742188 -180.25 113.957031 -177.796875 121.96875 -172.890625 C 129.976562 -167.984375 136.335938 -161.320312 141.046875 -152.90625 C 145.753906 -144.5 148.109375 -135.1875 148.109375 -124.96875 C 148.109375 -112.75 144.703125 -102.035156 137.890625 -92.828125 C 131.078125 -83.617188 122.363281 -77.410156 111.75 -74.203125 Z M 88.328125 -102.4375 C 94.734375 -102.4375 99.988281 -104.4375 104.09375 -108.4375 C 108.195312 -112.445312 110.25 -117.554688 110.25 -123.765625 C 110.25 -129.972656 108.195312 -135.078125 104.09375 -139.078125 C 99.988281 -143.085938 94.734375 -145.09375 88.328125 -145.09375 L 57.375 -145.09375 L 57.375 -102.4375 Z M 88.328125 -102.4375 "/></g></g></g><g fill="#ffffff" fill-opacity="1"><g transform="translate(3417.134771, 2285.053867)"><g><path d="M 174.84375 -180.25 L 217.5 -180.25 L 217.5 0 L 177.84375 0 L 177.84375 -107.25 L 128.875 0 L 106.046875 0 L 57.375 -107.546875 L 57.375 0 L 17.71875 0 L 17.71875 -180.25 L 60.6875 -180.25 L 117.453125 -55.578125 Z M 174.84375 -180.25 "/></g></g></g><g fill="#ffffff" fill-opacity="1"><g transform="translate(3652.332209, 2285.053867)"><g><path d="M 103.640625 2.40625 C 90.828125 2.40625 78.859375 0.00390625 67.734375 -4.796875 C 56.617188 -9.609375 46.804688 -16.269531 38.296875 -24.78125 C 29.785156 -33.289062 23.125 -43.101562 18.3125 -54.21875 C 13.507812 -65.332031 11.109375 -77.300781 11.109375 -90.125 C 11.109375 -102.9375 13.507812 -114.898438 18.3125 -126.015625 C 23.125 -137.128906 29.785156 -146.941406 38.296875 -155.453125 C 46.804688 -163.972656 56.617188 -170.632812 67.734375 -175.4375 C 78.859375 -180.25 90.828125 -182.65625 103.640625 -182.65625 C 116.460938 -182.65625 128.476562 -180.25 139.6875 -175.4375 C 150.90625 -170.632812 160.71875 -163.972656 169.125 -155.453125 C 177.539062 -146.941406 184.148438 -137.128906 188.953125 -126.015625 C 193.765625 -114.898438 196.171875 -102.9375 196.171875 -90.125 C 196.171875 -77.300781 193.765625 -65.332031 188.953125 -54.21875 C 184.148438 -43.101562 177.539062 -33.289062 169.125 -24.78125 C 160.71875 -16.269531 150.90625 -9.609375 139.6875 -4.796875 C 128.476562 0.00390625 116.460938 2.40625 103.640625 2.40625 Z M 103.640625 -36.34375 C 113.859375 -36.34375 123.019531 -38.695312 131.125 -43.40625 C 139.238281 -48.113281 145.648438 -54.519531 150.359375 -62.625 C 155.066406 -70.738281 157.421875 -79.90625 157.421875 -90.125 C 157.421875 -100.332031 155.066406 -109.492188 150.359375 -117.609375 C 145.648438 -125.722656 139.238281 -132.128906 131.125 -136.828125 C 123.019531 -141.535156 113.859375 -143.890625 103.640625 -143.890625 C 93.628906 -143.890625 84.566406 -141.535156 76.453125 -136.828125 C 68.335938 -132.128906 61.925781 -125.722656 57.21875 -117.609375 C 52.519531 -109.492188 50.171875 -100.332031 50.171875 -90.125 C 50.171875 -79.90625 52.519531 -70.738281 57.21875 -62.625 C 61.925781 -54.519531 68.335938 -48.113281 76.453125 -43.40625 C 84.566406 -38.695312 93.628906 -36.34375 103.640625 -36.34375 Z M 103.640625 -36.34375 "/></g></g></g></svg>